<?xml version="1.0" encoding="utf-8"?>
<!-- Generator: Adobe Illustrator 15.0.0, SVG Export Plug-In . SVG Version: 6.00 Build 0)  -->
<!DOCTYPE svg PUBLIC "-//W3C//DTD SVG 1.1//EN" "http://www.w3.org/Graphics/SVG/1.1/DTD/svg11.dtd">
<svg version="1.1" id="Layer_1" xmlns="http://www.w3.org/2000/svg" xmlns:xlink="http://www.w3.org/1999/xlink" x="0px" y="0px"
	 width="1001px" height="501px" viewBox="0 0 1001 501" enable-background="new 0 0 1001 501" xml:space="preserve">
<path fill="#FFFFFF" d="M422.241,211.976c0,4.971-4.034,9-9.005,9H161.139c-4.971,0-9.001-4.029-9.001-9V61.169
	c0-4.975,4.03-9.005,9.001-9.005h252.097c4.971,0,9.005,4.03,9.005,9.005V211.976z"/>
<path fill="none" stroke="#3957A7" stroke-width="4" stroke-miterlimit="10" d="M422.241,211.976c0,4.971-4.034,9-9.005,9H161.139
	c-4.971,0-9.001-4.029-9.001-9V61.169c0-4.975,4.03-9.005,9.001-9.005h252.097c4.971,0,9.005,4.03,9.005,9.005V211.976z"/>
<polygon fill="#3957A7" points="276.436,161.928 263.242,161.928 271.489,111.248 284.684,111.248 "/>
<path fill="#3957A7" d="M252.142,111.248l-12.58,34.857l-1.489-7.505v0.002l-4.437-22.791c0,0-0.538-4.563-6.258-4.563h-20.799
	l-0.239,0.859c0,0,6.359,1.321,13.8,5.793l11.46,44.028h13.75l20.996-50.68H252.142z"/>
<path fill="#3957A7" d="M355.927,161.928h12.112l-10.56-50.68h-10.608c-4.9,0-6.094,3.776-6.094,3.776l-19.675,46.904h13.753
	l2.746-7.526h16.778L355.927,161.928z M341.408,144.003l6.931-18.97l3.903,18.97H341.408z"/>
<path fill="#3957A7" d="M322.132,123.435l1.88-10.884c0,0-5.808-2.208-11.865-2.208c-6.548,0-22.098,2.863-22.098,16.778
	c0,13.094,18.254,13.256,18.254,20.13c0,6.875-16.374,5.647-21.774,1.31l-1.964,11.376c0,0,5.893,2.864,14.893,2.864
	c9.005,0,22.59-4.663,22.59-17.349c0-13.176-18.413-14.406-18.413-20.134C303.635,119.587,316.488,120.324,322.132,123.435"/>
<path fill="#F9A533" d="M238.073,138.603l-4.437-22.791c0,0-0.538-4.563-6.258-4.563h-20.799l-0.239,0.858
	c0,0,9.993,2.072,19.578,9.831C235.083,129.356,238.073,138.603,238.073,138.603"/>
<path fill="#FFFFFF" d="M848.079,212.322c0,4.988-4.025,9.03-8.985,9.03H587.561c-4.961,0-8.98-4.042-8.98-9.03V61.015
	c0-4.991,4.02-9.035,8.98-9.035h251.533c4.96,0,8.985,4.044,8.985,9.035V212.322z"/>
<path fill="none" stroke="#3957A7" stroke-width="4" stroke-miterlimit="10" d="M848.079,212.322c0,4.988-4.025,9.03-8.985,9.03
	H587.561c-4.961,0-8.98-4.042-8.98-9.03V61.015c0-4.991,4.02-9.035,8.98-9.035h251.533c4.96,0,8.985,4.044,8.985,9.035V212.322z"/>
<polygon fill-rule="evenodd" clip-rule="evenodd" fill="#FBB231" points="745.731,186.372 748.254,186.306 750.744,186.122 
	753.184,185.805 755.609,185.366 757.968,184.812 760.292,184.141 762.565,183.351 764.788,182.461 766.963,181.455 
	769.076,180.364 771.121,179.154 773.114,177.862 775.027,176.47 776.872,174.992 778.653,173.43 780.351,171.769 781.983,170.038 
	783.515,168.223 784.97,166.345 786.335,164.396 787.604,162.367 788.791,160.281 789.86,158.133 790.849,155.918 791.722,153.649 
	792.498,151.333 793.16,148.969 793.703,146.566 794.131,144.101 794.445,141.614 794.627,139.08 794.691,136.511 794.627,133.958 
	794.445,131.439 794.131,128.956 793.703,126.52 793.16,124.121 792.498,121.769 791.722,119.454 790.849,117.203 789.86,115.005 
	788.791,112.854 787.604,110.79 786.335,108.76 784.97,106.811 783.515,104.948 781.983,103.137 780.351,101.405 778.653,99.76 
	776.872,98.199 775.027,96.721 773.114,95.329 771.121,94.035 769.076,92.844 766.963,91.753 764.788,90.743 762.565,89.854 
	760.292,89.065 757.968,88.394 755.609,87.84 753.184,87.405 750.744,87.084 748.254,86.897 745.731,86.831 743.229,86.897 
	740.739,87.084 738.3,87.405 735.891,87.84 733.532,88.394 731.208,89.065 728.951,89.854 726.725,90.743 724.565,91.753 
	722.475,92.844 720.431,94.035 718.449,95.329 716.541,96.721 714.691,98.199 712.927,99.76 711.23,101.405 709.614,103.137 
	708.083,104.948 706.633,106.811 705.279,108.76 704.006,110.79 702.84,112.854 701.751,115.005 700.779,117.203 699.905,119.454 
	699.146,121.769 698.489,124.121 697.941,126.52 697.514,128.956 697.204,131.439 697.021,133.958 696.953,136.511 697.021,139.08 
	697.204,141.614 697.514,144.101 697.941,146.566 698.489,148.969 699.146,151.333 699.905,153.649 700.779,155.918 
	701.751,158.133 702.84,160.281 704.006,162.367 705.279,164.396 706.633,166.345 708.083,168.223 709.614,170.038 711.23,171.769 
	712.927,173.43 714.691,174.992 716.541,176.47 718.449,177.862 720.431,179.154 722.475,180.364 724.565,181.455 726.725,182.461 
	728.951,183.351 731.208,184.141 733.532,184.812 735.891,185.366 738.3,185.805 740.739,186.122 743.229,186.306 "/>
<polygon fill-rule="evenodd" clip-rule="evenodd" fill="#EC1C2E" points="680.356,186.372 682.858,186.306 685.349,186.122 
	687.792,185.805 690.196,185.366 692.555,184.812 694.875,184.141 697.136,183.351 699.362,182.461 701.521,181.455 
	703.617,180.364 705.657,179.154 707.638,177.862 709.551,176.47 711.396,174.992 713.16,173.43 714.856,171.769 716.473,170.038 
	718.009,168.223 719.455,166.345 720.808,164.396 722.076,162.367 723.247,160.281 724.336,158.133 725.308,155.918 
	726.182,153.649 726.941,151.333 727.599,148.969 728.146,146.566 728.57,144.101 728.888,141.614 729.066,139.08 729.129,136.511 
	729.066,133.958 728.888,131.439 728.57,128.956 728.146,126.52 727.599,124.121 726.941,121.769 726.182,119.454 725.308,117.203 
	724.336,115.005 723.247,112.854 722.076,110.79 720.808,108.76 719.455,106.811 718.009,104.948 716.473,103.137 714.856,101.405 
	713.16,99.76 711.396,98.199 709.551,96.721 707.638,95.329 705.657,94.035 703.617,92.844 701.521,91.753 699.362,90.743 
	697.136,89.854 694.875,89.065 692.555,88.394 690.196,87.84 687.792,87.405 685.349,87.084 682.858,86.897 680.356,86.831 
	677.833,86.897 675.343,87.084 672.904,87.405 670.478,87.84 668.124,88.394 665.8,89.065 663.521,89.854 661.299,90.743 
	659.123,91.753 657.015,92.844 654.971,94.035 652.973,95.329 651.061,96.721 649.215,98.199 647.434,99.76 645.737,101.405 
	644.104,103.137 642.573,104.948 641.122,106.811 639.752,108.76 638.484,110.79 637.296,112.854 636.228,115.005 635.235,117.203 
	634.365,119.454 633.588,121.769 632.928,124.121 632.385,126.52 631.956,128.956 631.643,131.439 631.46,133.958 631.396,136.511 
	631.46,139.08 631.643,141.614 631.956,144.101 632.385,146.566 632.928,148.969 633.588,151.333 634.365,153.649 635.235,155.918 
	636.228,158.133 637.296,160.281 638.484,162.367 639.752,164.396 641.122,166.345 642.573,168.223 644.104,170.038 
	645.737,171.769 647.434,173.43 649.215,174.992 651.061,176.47 652.973,177.862 654.971,179.154 657.015,180.364 659.123,181.455 
	661.299,182.461 663.521,183.351 665.8,184.141 668.124,184.812 670.478,185.366 672.904,185.805 675.343,186.122 677.833,186.306 
	"/>
<polygon fill-rule="evenodd" clip-rule="evenodd" fill="#FBB231" points="707.324,105.921 733.291,105.921 733.291,103.217 
	709.563,103.217 "/>
<polygon fill-rule="evenodd" clip-rule="evenodd" fill="#FBB231" points="703.435,111.93 733.291,111.93 733.291,109.226 
	705,109.226 "/>
<polygon fill-rule="evenodd" clip-rule="evenodd" fill="#FBB231" points="700.529,117.925 733.291,117.925 733.291,115.221 
	701.688,115.221 "/>
<polygon fill-rule="evenodd" clip-rule="evenodd" fill="#FBB231" points="698.535,123.935 733.291,123.935 733.291,121.233 
	699.362,121.233 "/>
<polygon fill-rule="evenodd" clip-rule="evenodd" fill="#FBB231" points="699.693,152.98 733.371,152.98 733.371,150.277 
	698.866,150.277 "/>
<polygon fill-rule="evenodd" clip-rule="evenodd" fill="#FBB231" points="697.78,146.987 731.458,146.987 731.458,144.284 
	696.953,144.284 "/>
<polygon fill-rule="evenodd" clip-rule="evenodd" fill="#FBB231" points="702.179,158.99 733.371,158.99 733.371,156.287 
	700.944,156.287 "/>
<polygon fill-rule="evenodd" clip-rule="evenodd" fill="#FBB231" points="705.674,164.984 733.371,164.984 733.371,162.28 
	704.007,162.28 "/>
<polygon fill-rule="evenodd" clip-rule="evenodd" fill="#FBB231" points="710.488,170.994 733.371,170.994 733.371,168.274 
	708.164,168.274 "/>
<polygon fill-rule="evenodd" clip-rule="evenodd" fill="#FBB231" points="697.369,129.929 733.291,129.929 733.291,127.226 
	697.878,127.226 "/>
<polygon fill-rule="evenodd" clip-rule="evenodd" fill="#FBB231" points="696.245,135.677 732.167,135.677 732.167,132.974 
	696.754,132.974 "/>
<polygon fill-rule="evenodd" clip-rule="evenodd" fill="#FBB231" points="697.952,135.677 733.874,135.677 733.874,132.974 
	698.462,132.974 "/>
<polygon fill-rule="evenodd" clip-rule="evenodd" fill="#FBB231" points="719.26,146.988 732.956,146.988 732.956,144.282 
	719.752,144.282 "/>
<polygon fill-rule="evenodd" clip-rule="evenodd" fill="#FBB231" points="706.481,146.988 720.178,146.988 720.178,144.282 
	706.974,144.282 "/>
<polygon fill-rule="evenodd" clip-rule="evenodd" fill="#FBB231" points="698.535,146.988 712.231,146.988 712.231,144.282 
	699.027,144.282 "/>
<polygon fill-rule="evenodd" clip-rule="evenodd" fill="#FBB231" points="696.587,140.985 710.282,140.985 710.282,138.28 
	697.078,138.28 "/>
<polygon fill-rule="evenodd" clip-rule="evenodd" fill="#FBB231" points="720.346,140.992 732.956,140.992 732.956,138.272 
	720.842,138.272 "/>
<polygon fill-rule="evenodd" clip-rule="evenodd" fill="#FBB231" points="709.025,140.992 721.635,140.992 721.635,138.272 
	709.521,138.272 "/>
<polygon fill-rule="evenodd" clip-rule="evenodd" fill="#FBB231" points="700.021,140.992 712.63,140.992 712.63,138.272 
	700.517,138.272 "/>
<polygon fill-rule="evenodd" clip-rule="evenodd" fill="#FBB231" points="696.462,138.273 700.021,138.273 700.021,140.992 
	696.627,140.992 "/>
<polygon fill-rule="evenodd" clip-rule="evenodd" fill="#FBB231" points="697.087,132.966 700.646,132.966 700.646,135.685 
	697.253,135.685 "/>
<polygon fill-rule="evenodd" clip-rule="evenodd" fill="#FBB231" points="787.026,166.764 787.026,166.696 787.158,166.261 
	787.392,165.874 787.672,165.539 788.015,165.27 788.409,165.067 788.838,164.952 789.3,164.9 789.767,164.952 790.19,165.067 
	790.59,165.27 790.933,165.539 791.213,165.874 791.441,166.261 791.578,166.696 791.578,166.764 791.099,166.764 791.001,166.414 
	790.835,166.093 790.619,165.806 790.356,165.573 790.048,165.387 789.682,165.27 789.3,165.236 788.923,165.27 788.562,165.387 
	788.244,165.573 787.98,165.806 787.769,166.093 787.604,166.414 787.506,166.764 "/>
<polygon fill-rule="evenodd" clip-rule="evenodd" fill="#FBB231" points="788.478,166.764 788.478,166.179 789.385,166.179 
	789.583,166.179 789.767,166.211 789.894,166.241 790.013,166.308 790.093,166.394 790.157,166.496 790.19,166.613 790.207,166.764 
	789.881,166.764 789.881,166.68 789.86,166.595 789.83,166.528 789.775,166.496 789.729,166.462 789.647,166.444 789.563,166.429 
	789.482,166.429 789.385,166.429 788.889,166.429 788.889,166.764 "/>
<polygon fill-rule="evenodd" clip-rule="evenodd" fill="#FBB231" points="786.979,167.132 787.026,166.764 787.506,166.764 
	787.506,166.778 787.472,167.132 "/>
<polygon fill-rule="evenodd" clip-rule="evenodd" fill="#FBB231" points="788.478,167.132 788.478,166.764 788.889,166.764 
	788.889,167.098 789.3,167.098 789.448,167.067 789.563,167.05 789.664,167.014 789.749,166.982 789.813,166.932 789.848,166.88 
	789.881,166.799 789.881,166.764 790.207,166.764 790.19,166.88 790.157,166.982 790.11,167.067 790.047,167.132 "/>
<polygon fill-rule="evenodd" clip-rule="evenodd" fill="#FBB231" points="791.133,167.132 791.099,166.778 791.099,166.764 
	791.578,166.764 791.629,167.132 "/>
<polygon fill-rule="evenodd" clip-rule="evenodd" fill="#FBB231" points="786.979,167.132 786.979,167.183 787.026,167.669 
	787.158,168.122 787.392,168.526 787.671,168.878 788.015,169.166 788.409,169.364 788.838,169.5 789.3,169.55 789.767,169.5 
	790.19,169.364 790.59,169.166 790.933,168.878 791.213,168.526 791.441,168.122 791.578,167.669 791.629,167.183 791.629,167.132 
	791.133,167.132 791.133,167.183 791.099,167.587 791,167.956 790.834,168.274 790.619,168.556 790.356,168.796 790.047,168.98 
	789.682,169.098 789.3,169.131 788.923,169.098 788.562,168.98 788.244,168.796 787.98,168.556 787.769,168.274 787.604,167.956 
	787.506,167.587 787.472,167.183 787.472,167.132 "/>
<polygon fill-rule="evenodd" clip-rule="evenodd" fill="#FBB231" points="788.478,167.132 788.478,168.107 788.889,168.107 
	788.889,167.266 789.3,167.266 789.796,168.107 790.123,168.107 789.631,167.266 789.749,167.266 789.86,167.235 789.961,167.2 
	790.047,167.132 "/>
<path fill="#FFFFFF" d="M423.815,438.434c0,5.007-4.062,9.065-9.07,9.065H160.832c-5.007,0-9.065-4.059-9.065-9.065V286.54
	c0-5.011,4.058-9.07,9.065-9.07h253.913c5.008,0,9.07,4.06,9.07,9.07V438.434z"/>
<path fill="none" stroke="#0078A9" stroke-width="4" stroke-miterlimit="10" d="M423.815,438.434c0,5.007-4.062,9.065-9.07,9.065
	H160.832c-5.007,0-9.065-4.059-9.065-9.065V286.54c0-5.011,4.058-9.07,9.065-9.07h253.913c5.008,0,9.07,4.06,9.07,9.07V438.434z"/>
<path fill="#0078A9" d="M235.333,358.666v-2.749l-1.314,2.749h-11.385l-1.43-2.95v2.95h-21.28l-2.513-5.952h-4.265l-2.663,5.952
	h-11.034V340.7l8.088-18.3h15.487l2.175,5.186v-5.147h18.938l4.166,8.73l4.076-8.769h59.789c0,0,3.134-0.043,5.198,1.408
	l-0.013-1.408h15.063v1.982c0,0,2.71-1.982,6.713-1.982h26.581l2.333,5.262V322.4h17.033l3.091,5.262V322.4h16.283v36.3h-16.728
	l-3.931-6.328v6.294H343l-2.925-6.482h-4.076l-2.74,6.482h-12.584c0,0-4.693-0.061-8.212-2.578v2.578h-25.052v-8.47
	c0-1.229-0.942-1.143-0.942-1.143h-0.916v9.612H235.333z"/>
<path fill="#0078A9" d="M222.83,366.527h32.917l4.753,5.378l4.86-5.378h25.309c0,0,2.376,0.06,4.633,1.263v-1.263h22.538
	c2.86,0,5.262,1.43,5.262,1.43v-1.43h28.97v1.318c0,0,2.064-1.318,4.838-1.318h18.874v1.318c0,0,2.376-1.318,4.889-1.318h14.819
	v34.206c0,0-1.948,2.205-5.977,2.205h-19.538v-1.088c0,0-1.857,1.088-4.692,1.088h-51.898v-8.842c0-0.869-0.377-1.027-1.152-1.027
	h-0.715v9.869h-16.218v-9.81c0,0-1.799,0.968-4.805,0.968h-5.831v8.842h-19.991l-4.548-5.549l-4.863,5.549H222.83V366.527z"/>
<polygon fill="#FFFFFF" points="326.579,371.986 347.238,371.986 347.238,377.526 332.902,377.526 332.902,382.356 346.835,382.356 
	346.835,387.237 332.902,387.237 332.902,392.319 347.238,392.319 347.238,397.723 326.579,397.723 "/>
<path fill="#FFFFFF" d="M387.147,382.014c7.763,0.398,8.413,4.277,8.413,8.414c0,4.82-3.965,7.411-8.101,7.411h-13.273v-5.52h10.34
	c1.756,0,4.368,0,4.368-2.47c0-1.174-0.458-1.923-2.325-2.12c-0.831-0.12-3.901-0.291-4.367-0.3
	c-7.014-0.184-8.649-3.674-8.649-7.921c0-4.825,3.391-7.463,7.531-7.463h13.269v5.515h-9.711c-2.209,0.021-4.594-0.261-4.594,2.235
	c0,1.58,1.177,1.896,2.672,2.042C383.237,381.838,386.685,382.018,387.147,382.014"/>
<path fill="#FFFFFF" d="M363.354,382.014c7.767,0.398,8.418,4.277,8.418,8.414c0,4.82-3.961,7.411-8.101,7.411h-13.269v-5.52h10.34
	c1.752,0,4.367,0,4.367-2.47c0-1.174-0.462-1.923-2.329-2.12c-0.83-0.12-3.905-0.291-4.363-0.3
	c-7.021-0.184-8.645-3.674-8.645-7.921c0-4.825,3.387-7.463,7.523-7.463h13.269v5.515h-9.706c-2.214,0.021-4.599-0.261-4.599,2.235
	c0,1.58,1.182,1.896,2.677,2.042C359.449,381.838,362.896,382.018,363.354,382.014"/>
<path fill="#FFFFFF" d="M288.434,372.042h-22.175l-7.24,7.985l-7.005-8.041h-24.906v25.736h24.097l7.587-8.503l7.408,8.563h12.125
	v-8.739h8.499c3.275,0,9.253-0.111,9.253-9.133C296.077,373.477,291.538,372.042,288.434,372.042 M247.908,392.319h-14.57v-5.082
	h13.937v-4.881h-13.937v-4.83l15.366,0.034l6.153,7.005L247.908,392.319z M272.061,395.309l-9.077-10.743l9.077-10.052V395.309z
	 M286.306,383.743h-7.87v-6.178h7.896c2.646,0,3.481,1.695,3.481,2.958C289.812,382.249,288.892,383.743,286.306,383.743"/>
<path fill="#FFFFFF" d="M318.958,386.06c3.451-1.721,4.367-4.021,4.367-7.124c0-5.511-4.479-6.89-7.583-6.89h-16.428v25.737h6.319
	v-9.081h8.272c2.184,0,3.045,2.184,3.1,4.367l0.167,4.714h6.153l-0.231-5.288C323.094,388.355,321.951,386.402,318.958,386.06
	 M313.503,383.396h-7.87v-5.831h7.895c2.642,0,3.477,1.695,3.477,2.958C317.005,382.245,316.089,383.396,313.503,383.396"/>
<rect x="301.844" y="327.556" fill="#FFFFFF" width="6.32" height="25.768"/>
<polygon fill="#FFFFFF" points="250.117,327.586 270.767,327.586 270.767,333.126 256.437,333.126 256.437,337.955 270.365,337.955 
	270.365,342.837 256.437,342.837 256.437,347.919 270.767,347.919 270.767,353.322 250.117,353.322 "/>
<path fill="#FFFFFF" d="M294.167,341.6c3.451-1.718,4.367-4.021,4.367-7.125c0-5.515-4.483-6.889-7.583-6.889h-16.432v25.736h6.319
	v-9.077h8.272c2.184,0,3.049,2.18,3.104,4.363l0.172,4.714h6.148l-0.227-5.288C298.307,343.898,297.156,341.946,294.167,341.6
	 M288.708,338.936h-7.87v-5.831h7.9c2.637,0,3.476,1.695,3.476,2.958C292.214,337.788,291.294,338.936,288.708,338.936"/>
<path fill="#FFFFFF" d="M235.543,327.585l-7.754,17.264l-7.729-17.264h-9.908v24.787l-11.029-24.787h-8.362L179.5,353.322h6.667
	l2.466-5.746h12.614l2.5,5.746h12.721v-19.104l8.448,19.104h5.745l8.645-18.788v18.788h6.32v-25.737H235.543z M191.022,342.023
	l3.768-8.996l3.926,8.996H191.022z"/>
<path fill="#FFFFFF" d="M373.369,327.572v17.82l-10.657-17.82h-9.338v24.17l-10.764-24.156h-8.362l-8.705,19.935
	c0,0-3.678,0-4.05-0.09c-1.52-0.312-3.901-1.387-3.931-5.926v-1.866c0-6.033,3.276-6.475,7.476-6.475h3.9v-5.592h-8.25
	c-2.873,0-9.125,2.192-9.334,12.764c-0.146,7.125,2.958,12.999,9.968,12.999h8.332l2.466-5.746h12.609l2.501,5.746h12.468v-18.848
	l11.372,18.848h8.619v-25.763H373.369z M334.556,342.036l3.764-8.996l3.965,8.996H334.556z"/>
<path fill="#FFFFFF" d="M847.587,437.734c0,4.979-4.017,9.015-8.966,9.015h-251.02c-4.951,0-8.962-4.035-8.962-9.015v-151.05
	c0-4.983,4.011-9.021,8.962-9.021h251.02c4.949,0,8.966,4.037,8.966,9.021V437.734z"/>
<path fill="none" stroke="#000000" stroke-width="4" stroke-miterlimit="10" d="M847.587,437.734c0,4.979-4.017,9.015-8.966,9.015
	h-251.02c-4.951,0-8.962-4.035-8.962-9.015v-151.05c0-4.983,4.011-9.021,8.962-9.021h251.02c4.949,0,8.966,4.037,8.966,9.021
	V437.734z"/>
<path fill="#F58220" d="M651.596,448.499h188.403c5.013,0,9.08-4.13,9.08-9.219v-64.711
	C830.995,386.207,762.82,426.333,651.596,448.499"/>
<g>
	<defs>
		<path id="SVGID_1_" d="M702.642,361.923c0,7.812,5.819,13.645,13.593,13.645c7.57,0,13.55-5.911,13.55-13.494
			c0-7.53-5.941-13.446-13.55-13.446C708.729,348.627,702.642,354.578,702.642,361.923"/>
	</defs>
	<clipPath id="SVGID_2_">
		<use xlink:href="#SVGID_1_"  overflow="visible"/>
	</clipPath>
	
		<radialGradient id="SVGID_3_" cx="61.5972" cy="1212.1367" r="0.9998" gradientTransform="matrix(13.4199 0 0 -13.6254 -110.4233 16877.9492)" gradientUnits="userSpaceOnUse">
		<stop  offset="0" style="stop-color:#FFEEE0"/>
		<stop  offset="0.0056" style="stop-color:#FFEEE0"/>
		<stop  offset="0.1097" style="stop-color:#FEE9D7"/>
		<stop  offset="0.2802" style="stop-color:#FDDBBE"/>
		<stop  offset="0.496" style="stop-color:#FBC496"/>
		<stop  offset="0.748" style="stop-color:#F8A55F"/>
		<stop  offset="1" style="stop-color:#F48120"/>
	</radialGradient>
	<rect x="702.642" y="348.627" clip-path="url(#SVGID_2_)" fill="url(#SVGID_3_)" width="27.143" height="26.94"/>
</g>
<path fill="#001722" d="M639.072,349.109h-7.303v25.877h7.269c3.855,0,6.646-0.93,9.093-2.983c2.9-2.45,4.622-6.136,4.622-9.942
	C652.753,354.422,647.134,349.109,639.072,349.109 M644.887,368.545c-1.573,1.438-3.592,2.059-6.812,2.059h-1.334v-17.111h1.334
	c3.221,0,5.163,0.581,6.812,2.093c1.718,1.555,2.739,3.957,2.739,6.437C647.626,364.511,646.604,366.999,644.887,368.545"/>
<rect x="655.048" y="349.109" fill="#001722" width="4.962" height="25.877"/>
<path fill="#001722" d="M672.168,359.034c-2.985-1.12-3.859-1.86-3.859-3.256c0-1.627,1.565-2.867,3.707-2.867
	c1.488,0,2.709,0.62,4.016,2.088l2.596-3.443c-2.142-1.908-4.703-2.876-7.494-2.876c-4.504,0-7.947,3.181-7.947,7.409
	c0,3.573,1.604,5.395,6.269,7.1c1.95,0.698,2.942,1.163,3.438,1.478c0.993,0.663,1.493,1.589,1.493,2.674
	c0,2.101-1.642,3.646-3.864,3.646c-2.37,0-4.278-1.197-5.423-3.448l-3.206,3.147c2.285,3.411,5.038,4.926,8.825,4.926
	c5.156,0,8.787-3.497,8.787-8.5C679.505,362.999,677.829,361.135,672.168,359.034"/>
<path fill="#001722" d="M681.069,362.061c0,7.612,5.887,13.507,13.456,13.507c2.142,0,3.974-0.426,6.229-1.511v-5.938
	c-1.988,2.02-3.748,2.828-6,2.828c-5.005,0-8.562-3.686-8.562-8.926c0-4.96,3.664-8.883,8.333-8.883
	c2.366,0,4.165,0.857,6.229,2.911v-5.938c-2.175-1.124-3.978-1.585-6.115-1.585C687.108,348.527,681.069,354.543,681.069,362.061"/>
<polygon fill="#001722" points="741.03,366.491 734.232,349.109 728.8,349.109 739.622,375.649 742.294,375.649 753.303,349.109 
	747.918,349.109 "/>
<polygon fill="#001722" points="755.563,374.986 769.66,374.986 769.66,370.604 760.525,370.604 760.525,363.615 769.312,363.615 
	769.312,359.236 760.525,359.236 760.525,353.492 769.66,353.492 769.66,349.109 755.563,349.109 "/>
<path fill="#001722" d="M789.338,356.748c0-4.849-3.282-7.639-9.016-7.639h-7.379v25.877h4.974v-10.398h0.649l6.879,10.398h6.11
	l-8.027-10.902C787.277,363.31,789.338,360.709,789.338,356.748 M779.363,361.019h-1.446v-7.841h1.527
	c3.1,0,4.779,1.326,4.779,3.841C784.224,359.619,782.544,361.019,779.363,361.019"/>
<path fill="#231F20" d="M792.845,351.038c0-0.452-0.301-0.702-0.848-0.702h-0.721v2.283h0.534v-0.888l0.623,0.888h0.67l-0.746-0.944
	C792.671,351.589,792.845,351.356,792.845,351.038 M791.903,351.348h-0.093v-0.59h0.098c0.271,0,0.402,0.095,0.402,0.289
	C792.311,351.244,792.174,351.348,791.903,351.348"/>
<path fill="#231F20" d="M792.107,349.479c-1.09,0-1.96,0.887-1.96,1.993c0,1.103,0.874,1.989,1.96,1.989
	c1.064,0,1.938-0.896,1.938-1.989S793.172,349.479,792.107,349.479 M792.103,353.104c-0.869,0-1.568-0.723-1.568-1.627
	c0-0.913,0.69-1.637,1.568-1.637c0.849,0,1.544,0.736,1.544,1.637C793.646,352.373,792.951,353.104,792.103,353.104"/>
<path fill="none" stroke="#000000" stroke-width="4" stroke-miterlimit="10" d="M847.665,438.133c0,4.979-4.017,9.016-8.967,9.016
	h-251.02c-4.951,0-8.962-4.037-8.962-9.016v-151.05c0-4.983,4.011-9.02,8.962-9.02h251.02c4.95,0,8.967,4.036,8.967,9.02V438.133z"
	/>
</svg>
